<?xml version="1.0" encoding="UTF-8"?>
<!DOCTYPE svg PUBLIC "-//W3C//DTD SVG 1.1//EN" "http://www.w3.org/Graphics/SVG/1.1/DTD/svg11.dtd">
<!-- Creator: CorelDRAW 2017 -->
<svg xmlns="http://www.w3.org/2000/svg" xml:space="preserve" width="215.9mm" height="279.4mm" version="1.1" style="shape-rendering:geometricPrecision; text-rendering:geometricPrecision; image-rendering:optimizeQuality; fill-rule:evenodd; clip-rule:evenodd"
viewBox="0 0 21590 27940"
 xmlns:xlink="http://www.w3.org/1999/xlink">
 <defs>
  <style type="text/css">
   <![CDATA[
    .fil2 {fill:none}
    .fil1 {fill:#863A93;fill-rule:nonzero}
    .fil0 {fill:#FFCC29;fill-opacity:0.670588}
   ]]>
  </style>
 </defs>
 <g id="Capa_x0020_1">
  <metadata id="CorelCorpID_0Corel-Layer"/>
  <polygon class="fil0" points="13725.54,5578.2 15595.91,5578.2 15595.91,10786.25 13725.54,10786.25 "/>
  <path class="fil1" d="M13944.01 5363.59l1908.17 0 0 5284.92c-648.86,-0.27 -1297.74,-0.27 -1946.59,0l0 -5284.92 38.42 0zm1831.32 76.85l-1792.9 0 0 5131.21 1792.9 0 0 -5131.21z"/>
  <path class="fil1" d="M14331.85 5694.04l168.44 0c45.52,0 80.49,3.51 105.02,10.69 24.39,7.19 42.81,17.48 55.14,30.91 12.33,13.54 20.61,29.94 25.08,49.05 4.32,19.24 6.49,48.91 6.49,89.15l0 55.97c0,40.92 -4.2,70.87 -12.73,89.57 -8.39,18.84 -23.99,33.34 -46.48,43.37 -22.62,10.02 -52.16,15.04 -88.62,15.04l-44.86 0 0 259.35 -167.48 0 0 -643.1zm167.48 109.76l0 163.82c4.74,0.27 8.82,0.41 12.2,0.41 15.32,0 25.88,-3.81 31.84,-11.39 5.84,-7.46 8.81,-23.17 8.81,-47.02l0 -52.99c0,-21.95 -3.38,-36.32 -10.29,-42.94 -6.78,-6.65 -21.01,-9.89 -42.56,-9.89zm240.67 -109.76l278.87 0 0 128.44 -111.4 0 0 122.77 104.08 0 0 121.95 -104.08 0 0 141.47 122.79 0 0 128.47 -290.26 0 0 -643.1zm711 0l0 643.1 -146.35 0 -87 -292.43 0 292.43 -139.84 0 0 -643.1 139.84 0 93.49 289.56 0 -289.56 139.86 0zm-1119.15 991.76l125.07 0c80.63,0 135.23,3.65 163.69,11.11 28.47,7.45 50.13,19.64 64.92,36.58 14.77,16.94 24.1,35.78 27.77,56.51 3.65,20.87 5.55,61.67 5.55,122.64l0 225.21c0,57.72 -2.71,96.34 -8.12,115.72 -5.42,19.51 -14.91,34.82 -28.33,45.8 -13.54,10.97 -30.21,18.58 -50.13,23.03 -19.78,4.34 -49.74,6.51 -89.71,6.51l-210.71 0 0 -643.11zm167.48 109.77l0 423.58c23.72,0 38.35,-4.88 43.77,-14.5 5.55,-9.76 8.28,-36.05 8.28,-78.99l0 -250.16c0,-29.13 -0.96,-47.82 -2.73,-56.1 -1.88,-8.26 -5.95,-14.23 -12.6,-18.01 -6.49,-3.94 -18.69,-5.82 -36.72,-5.82zm281.86 -109.77l278.87 0 0 128.45 -111.39 0 0 122.77 104.08 0 0 121.95 -104.08 0 0 141.47 122.78 0 0 128.47 -290.26 0 0 -643.11zm-245.27 991.77l0 429.83c0,64.36 -0.68,105.69 -2.04,124.11 -1.34,18.44 -7.45,34.97 -18.15,49.88 -10.83,14.77 -25.47,25.06 -43.77,30.76 -18.28,5.69 -45.94,8.53 -82.79,8.53l-83.34 0 0 -112.6c9.89,0.8 17.07,1.21 21.55,1.21 11.66,0 20.99,-2.84 27.77,-8.66 6.78,-5.84 10.72,-13.03 11.66,-21.55 1.07,-8.4 1.63,-24.8 1.63,-49.19l0 -452.32 167.48 0zm353.54 0l95.66 643.11 -170.87 0 -9.09 -115.44 -60.28 0 -9.09 115.44 -173.04 0 84.83 -643.11 241.88 0zm-88.77 413.83c-7.99,-72.9 -16.38,-163.15 -25.33,-270.88 -16.54,123.59 -26.97,213.84 -31.44,270.88l56.77 0zm-468.84 577.94l125.07 0c80.63,0 135.23,3.65 163.69,11.11 28.47,7.45 50.13,19.64 64.92,36.58 14.77,16.94 24.1,35.78 27.77,56.51 3.65,20.87 5.55,61.67 5.55,122.64l0 225.21c0,57.72 -2.71,96.34 -8.12,115.72 -5.42,19.51 -14.91,34.82 -28.33,45.8 -13.54,10.97 -30.21,18.57 -50.13,23.03 -19.78,4.34 -49.74,6.51 -89.71,6.51l-210.71 0 0 -643.11zm167.48 109.77l0 423.58c23.72,0 38.35,-4.88 43.77,-14.5 5.55,-9.76 8.28,-36.05 8.28,-78.99l0 -250.16c0,-29.14 -0.96,-47.82 -2.73,-56.1 -1.88,-8.26 -5.95,-14.23 -12.6,-18.02 -6.49,-3.93 -18.69,-5.81 -36.72,-5.81zm449.34 -109.77l0 643.11 -167.48 0 0 -643.11 167.48 0zm-280.21 991.77l0 128.45 -98.4 0 0 514.66 -167.47 0 0 -514.66 -99.2 0 0 -128.45 365.07 0zm294.04 0l95.66 643.11 -170.87 0 -9.09 -115.45 -60.28 0 -9.09 115.45 -173.04 0 84.83 -643.11 241.88 0zm-88.77 413.83c-7.99,-72.9 -16.38,-163.15 -25.33,-270.88 -16.54,123.59 -26.97,213.84 -31.44,270.88l56.77 0zm566.84 -218.7l-155.3 0 0 -47.57c0,-22.22 -2.04,-36.45 -5.97,-42.54 -3.92,-6.11 -10.43,-9.08 -19.65,-9.08 -10.03,0 -17.61,4.07 -22.76,12.33 -5.15,8.12 -7.72,20.45 -7.72,37.12 0,21.42 2.98,37.55 8.82,48.38 5.68,10.7 21.39,23.85 47.28,39.3 74.12,44.3 120.86,80.76 140.11,109.09 19.38,28.3 29,73.98 29,136.86 0,45.8 -5.42,79.53 -16.12,101.35 -10.71,21.68 -31.3,39.85 -62.07,54.48 -30.61,14.77 -66.26,22.09 -107.05,22.09 -44.71,0 -82.8,-8.55 -114.51,-25.49 -31.57,-16.94 -52.16,-38.49 -62.05,-64.62 -9.76,-26.3 -14.64,-63.56 -14.64,-111.67l0 -42.13 155.3 0 0 78.18c0,24.12 2.15,39.57 6.49,46.48 4.34,6.91 12.06,10.29 23.18,10.29 11.11,0 19.38,-4.34 24.8,-13.13 5.42,-8.68 8.12,-21.69 8.12,-38.76 0,-37.82 -5.14,-62.61 -15.44,-74.13 -10.7,-11.64 -36.72,-31.16 -78.18,-58.54 -41.47,-27.51 -68.84,-47.56 -82.4,-60.02 -13.4,-12.47 -24.66,-29.67 -33.47,-51.63 -8.8,-21.95 -13.27,-50.01 -13.27,-84.16 0,-49.18 6.24,-85.23 18.84,-107.99 12.6,-22.76 32.78,-40.53 60.84,-53.39 28.04,-12.87 61.79,-19.25 101.48,-19.25 43.37,0 80.23,7.05 110.86,21.01 30.48,14.1 50.66,31.71 60.56,53.13 9.89,21.26 14.92,57.44 14.92,108.53l0 25.48z"/>
  <circle class="fil2" cx="14800.69" cy="8091.4" r="3500"/>
 </g>
</svg>
